<?xml version="1.0" encoding="UTF-8" standalone="no"?>
<svg
   xmlns:dc="http://purl.org/dc/elements/1.1/"
   xmlns:cc="http://creativecommons.org/ns#"
   xmlns:rdf="http://www.w3.org/1999/02/22-rdf-syntax-ns#"
   xmlns:svg="http://www.w3.org/2000/svg"
   xmlns="http://www.w3.org/2000/svg"
   xmlns:sodipodi="http://sodipodi.sourceforge.net/DTD/sodipodi-0.dtd"
   xmlns:inkscape="http://www.inkscape.org/namespaces/inkscape"
   version="1.1"
   id="svg2"
   xml:space="preserve"
   width="1140"
   height="692.20001"
   viewBox="0 0 1140 692.20001"
   sodipodi:docname="Coze_zami_revision_colorfix.svg"
   inkscape:version="1.0.1 (3bc2e813f5, 2020-09-07)"
   inkscape:export-filename="/home/z/dev/go/src/github.com/zamicol/cypherpunk/img/logo_coze/coze_logo_zami_white_450x273.png"
   inkscape:export-xdpi="37.894737"
   inkscape:export-ydpi="37.894737"><metadata
     id="metadata8"><rdf:RDF><cc:Work
         rdf:about=""><dc:format>image/svg+xml</dc:format><dc:type
           rdf:resource="http://purl.org/dc/dcmitype/StillImage" /><dc:title></dc:title></cc:Work></rdf:RDF></metadata><defs
     id="defs6" /><sodipodi:namedview
     pagecolor="#ffffff"
     bordercolor="#666666"
     borderopacity="1"
     objecttolerance="10"
     gridtolerance="10"
     guidetolerance="10"
     inkscape:pageopacity="0"
     inkscape:pageshadow="2"
     inkscape:window-width="1681"
     inkscape:window-height="2100"
     id="namedview4"
     showgrid="false"
     inkscape:zoom="0.8150336"
     inkscape:cx="639.38488"
     inkscape:cy="215.2441"
     inkscape:window-x="1689"
     inkscape:window-y="56"
     inkscape:window-maximized="0"
     inkscape:current-layer="g12"
     inkscape:document-rotation="0" /><g
     id="g10"
     inkscape:groupmode="layer"
     inkscape:label="ink_ext_XXXXXX"
     transform="matrix(1.3333333,0,0,-1.3333333,0,692.2)"><g
       id="g12"
       transform="scale(0.1)"><rect
         style="fill:#ffffff;stroke:none;stroke-width:7.5;fill-opacity:1"
         id="rect853"
         width="9142.3955"
         height="6046.9937"
         x="-168.0907"
         y="-5592.6392"
         transform="scale(1,-1)" /><path
         d="m 4569.4195,2101.1358 c -97.3507,0 -184.666,13.9073 -261.9904,41.6772 -77.3466,27.77 -142.8553,68.5795 -196.4817,122.4284 -53.6264,53.8044 -94.7918,119.5134 -123.4742,197.1047 -28.6823,77.5246 -43.0123,166.6645 -43.0123,267.3976 0,100.7108 16.5107,189.8507 49.5322,267.4199 33.0435,77.5244 78.1921,143.2335 135.5567,197.0824 57.3202,53.8043 124.6535,94.6138 201.911,122.4284 77.2799,27.7699 160.1672,41.6772 248.6395,41.6772 53.5818,0 102.1795,-3.7828 145.8148,-11.3261 43.6354,-7.5655 81.6189,-16.0434 114.0395,-25.3446 32.4205,-9.3011 59.1892,-19.2031 80.395,-29.6391 21.2058,-10.4805 36.1589,-18.046 44.9037,-22.6966 l -69.5362,-178.7026 c -29.9062,17.3784 -72.4957,33.9113 -127.8577,49.5542 -55.3842,15.6429 -115.4413,23.4533 -180.149,23.4533 -55.9851,0 -108.2541,-8.9898 -156.7626,-26.9022 -48.553,-17.9348 -90.5641,-44.8371 -126.0331,-80.7067 -35.469,-35.8918 -63.1501,-80.9958 -83.0653,-135.3787 -19.8929,-54.4052 -29.8393,-117.4662 -29.8393,-189.1831 0,-63.6619 7.7658,-122.1169 23.3196,-175.2982 15.5761,-53.2481 39.5634,-99.2199 71.9839,-138.0045 32.3762,-38.7623 73.4971,-68.8242 123.3407,-90.208 49.7991,-21.4283 109.6114,-32.1314 179.348,-32.1314 83.4435,0 151.3777,7.8326 203.7134,23.4755 52.3136,15.6429 92.7892,30.4179 121.4715,44.3252 l 63.9734,-179.0587 c -14.9975,-9.3011 -35.291,-18.5578 -60.8581,-27.8145 -25.5449,-9.3012 -55.807,-18.2463 -90.7421,-26.9467 -34.935,-8.6781 -74.2314,-15.6429 -117.8667,-20.8498 -43.6354,-5.2068 -90.3861,-7.8325 -140.2742,-7.8325"
         style="fill:#2b5aa0;fill-opacity:1;fill-rule:nonzero;stroke:none;stroke-width:2.22516"
         id="path14" /><path
         d="m 5719.0488,2581.281 c 0,90.1858 -21.05,161.5911 -63.1056,214.1716 -42.0778,52.6029 -100.7997,78.9266 -176.0992,78.9266 -75.3662,0 -134.0436,-26.3237 -176.0992,-78.9266 -42.0778,-52.5805 -63.1055,-123.9858 -63.1055,-214.1716 0,-91.3429 21.0277,-163.6161 63.1055,-216.8197 42.0556,-53.1813 100.733,-79.7497 176.0992,-79.7497 75.2995,0 134.0214,26.5684 176.0992,79.7497 42.0556,53.2036 63.1056,125.4768 63.1056,216.8197 z m 230.8604,0 c 0,-71.9172 -11.2592,-137.4482 -33.7334,-196.593 -22.4741,-59.1669 -54.2717,-109.6114 -95.4816,-151.3331 -41.21,-41.7663 -90.8311,-74.2314 -148.8855,-97.4399 -58.0768,-23.1639 -122.0946,-34.7792 -191.9647,-34.7792 -69.9367,0 -133.5987,11.6153 -191.0522,34.7792 -57.4537,23.2085 -106.741,55.6736 -147.951,97.4399 -41.1877,41.7217 -73.3635,92.1662 -96.4385,151.3331 -23.1194,59.1448 -34.6234,124.6758 -34.6234,196.593 0,71.8949 11.504,137.1366 34.6234,195.7029 23.075,58.5884 55.5401,108.7435 97.3953,150.5099 41.8109,41.7217 91.4541,73.9197 148.9078,96.5275 57.4091,22.6076 120.4702,33.9337 189.1386,33.9337 68.6685,0 132.0188,-11.3261 190.0955,-33.9337 58.0545,-22.6078 107.6755,-54.8058 148.8856,-96.5275 41.2099,-41.7664 73.319,-91.9215 96.4384,-150.5099 23.0749,-58.5663 34.6457,-123.808 34.6457,-195.7029"
         style="fill:#2b5aa0;fill-opacity:1;fill-rule:nonzero;stroke:none;stroke-width:2.22516"
         id="path16" /><path
         d="m 6756.7526,2888.2863 c -24.9886,-24.3655 -57.7875,-58.6106 -98.3744,-102.7356 -40.6093,-44.1472 -84.0221,-93.212 -130.261,-147.1944 -46.2388,-53.9823 -92.7446,-110.3012 -139.5842,-168.9342 -46.862,-58.6329 -89.051,-114.6403 -126.5227,-168.0218 h 505.868 V 2126.1688 H 5989.072 v 130.7282 c 27.4809,46.3724 61.8595,96.8391 103.0918,151.3333 41.21,54.4941 83.7105,109.2553 127.435,164.3725 43.7243,55.0505 87.1372,107.5198 130.2386,157.4079 43.1236,49.8436 81.5298,93.3455 115.2633,130.4612 h -450.9955 v 175.2314 h 742.6474 v -147.417"
         style="fill:#2b5aa0;fill-opacity:1;fill-rule:nonzero;stroke:none;stroke-width:2.22516"
         id="path18" /><path
         d="m 7469.8052,2671.3333 c 0,28.8603 -4.3836,56.341 -13.1506,82.3309 -8.7894,25.9899 -21.6064,48.4862 -38.5175,67.5336 -16.9558,19.0251 -37.583,34.0672 -62.0153,45.0595 -24.4322,10.9478 -53.5374,16.4662 -87.3598,16.4662 -35.1131,0 -65.7981,-6.0747 -92.0995,-18.2019 -26.3236,-12.1271 -48.5306,-27.9924 -66.7103,-47.6406 -18.1572,-19.626 -32.287,-42.1891 -42.278,-67.5782 -9.9909,-25.4112 -16.9112,-51.4012 -20.6495,-77.9695 z m -659.2038,-94.7251 c 0,79.9054 12.7947,150.0203 38.4286,210.2554 25.5893,60.2351 59.6342,110.3457 102.1348,150.3318 42.4561,39.9639 91.1649,70.0926 146.1485,90.3416 54.9392,20.249 111.1691,30.418 168.6672,30.418 134.9116,0 240.1616,-38.8514 315.7503,-116.4651 75.5665,-77.658 113.372,-193.5667 113.372,-347.6812 0,-11.6154 -0.3338,-24.6326 -0.9568,-39.1184 -0.6008,-14.508 -1.5577,-27.5475 -2.7815,-39.1184 h -647.1212 c 6.2304,-72.5624 34.0005,-128.77 83.31,-168.4891 49.3318,-39.7191 120.8263,-59.5898 214.5278,-59.5898 54.9392,0 105.1833,4.4503 150.7545,13.351 45.5491,8.8561 81.4633,18.3352 107.6978,28.3707 l 30.596,-172.4499 c -12.5054,-5.6964 -29.6836,-11.6375 -51.5347,-17.8903 -21.8733,-6.2749 -46.862,-11.9491 -74.9212,-17.0892 -28.0815,-5.0734 -58.3659,-9.3457 -90.831,-12.7725 -32.5096,-3.3599 -65.5978,-5.0956 -99.3089,-5.0956 -86.1805,0 -161.1017,11.9047 -224.8303,35.6026 -63.7064,23.7202 -116.1534,56.7639 -157.3633,99.042 -41.2101,42.3003 -71.806,92.0994 -91.788,149.464 -19.9819,57.3646 -29.9506,120.2032 -29.9506,188.5824"
         style="fill:#2b5aa0;fill-opacity:1;fill-rule:nonzero;stroke:none;stroke-width:2.22516"
         id="path20" /><path
         d="m 3647.3735,2889.7835 c -3.152,70.9542 -113.7827,66.0745 -113.7827,66.0745 l -685.6446,13.3798 c 0,0 -61.7704,174.4749 -76.323,221.6927 -14.5526,47.2624 -69.7674,43.2516 -69.7674,43.2516 0,0 -1267.7767,-17.7958 -1329.5693,-39.6023 -61.7706,-21.8066 7.2984,-319.8447 7.2984,-319.8447 0,0 -58.1657,-3.6269 -159.9223,-14.5302 -101.7788,-10.9033 -98.1518,-112.6599 -98.1518,-112.6599 l 50.8671,-530.6563 c 3.6493,-10.9033 -14.5079,-54.5387 69.069,-65.442 83.5994,-10.881 588.7998,-119.9362 588.7998,-119.9362 0,0 72.7182,-18.1795 156.2953,3.6493 83.5994,21.8066 1602.8722,239.8723 1602.8722,239.8723 0,0 58.1435,10.9256 58.1435,36.3368 0,25.4559 -0.1847,578.4146 -0.1847,578.4146 z"
         style="fill:none;stroke:#2b5aa0;stroke-width:29.0769;stroke-linecap:round;stroke-linejoin:round;stroke-miterlimit:4;stroke-dasharray:none;stroke-opacity:1"
         id="path22"
         sodipodi:nodetypes="ccccccccccccccsc" /><path
         d="m 1354.4248,3169.3011 c 0,0 57.8477,61.6378 101.4609,7.0992 43.6354,-54.5166 83.6216,-308.9414 83.6216,-308.9414 l -170.8479,-10.881"
         style="fill:#2b5aa0;fill-opacity:1;fill-rule:nonzero;stroke:none;stroke-width:2.22516"
         id="path24"
         sodipodi:nodetypes="cccc" /><path
         d="m 3545.7788,2940.1548 c 0,0 -109.0328,58.1658 -101.7788,-178.0796 7.2986,-236.2675 31.9965,-433.5362 10.1899,-440.8347 l -21.071,-2.573 c 0,0 20.9933,243.5216 -18.1795,243.5216 -54.5164,0 -576.5632,-2.4773 -1245.3129,-133.3167 -59.3464,-16.5027 -52.1869,-72.6738 -52.1869,-72.6738 0,0 10.2529,-270.1272 -0.059,-273.7986 l -14.5303,-3.6493 c 0,0 -10.9033,359.8085 -14.5303,548.8581 -3.627,188.983 -3.627,247.1263 -141.7427,239.8501 -138.1158,-7.254 -145.392,-69.0468 -130.8618,-178.0796 14.5303,-109.0552 29.0829,-650.5925 29.0829,-650.5925 0,0 50.8671,-21.8289 105.4058,-10.9034 54.5165,10.9034 1679.1731,243.5217 1693.7256,272.6045 14.5081,29.0607 12.5486,562.7509 12.5486,562.7509 0,0 -23.4741,116.9022 -197.9268,80.5653"
         style="fill:#2b5aa0;fill-opacity:1;fill-rule:nonzero;stroke:none;stroke-width:2.22516"
         id="path26"
         sodipodi:nodetypes="ccccsccccsccccccc" /><path
         d="m 2059.2381,2547.6365 c 0,0 261.6788,112.6599 795.9622,116.3092 421.6011,-14.5526 603.3523,-76.323 628.7859,-130.8617 10.9255,21.7843 7.2762,32.7099 7.2762,32.7099 0,0 -178.0796,123.5854 -636.0621,123.5854 -10.9033,90.8533 -31.131,253.4282 23.4078,267.9808 -14.5526,21.7843 -37.9382,15.5047 -37.9382,15.5047 0,0 -58.1434,-32.71 -29.0605,-272.5822 -185.3782,21.8066 -828.6944,-65.442 -799.6338,-119.9585"
         style="fill:#2b5aa0;fill-opacity:1;fill-rule:nonzero;stroke:none;stroke-width:2.22516"
         id="path28"
         sodipodi:nodetypes="ccccccccc" /><path
         d="m 1822.9928,2693.0062 c 0,0 54.5164,130.8396 -185.356,130.8396 -243.5438,-3.6271 -490.8415,35.0905 -505.3495,-33.9563 -14.5526,54.5166 145.5188,73.9424 399.9214,92.122 254.4472,18.1795 483.4161,29.0605 519.753,-18.1796 -54.4941,36.3591 -243.4993,36.3591 -254.4248,-54.5165 43.6131,-32.7098 69.0466,-54.5164 76.3452,-189.0273"
         style="fill:#2b5aa0;fill-opacity:1;fill-rule:nonzero;stroke:none;stroke-width:2.22516"
         id="path30"
         sodipodi:nodetypes="ccccccc" /><path
         d="m 1329.8971,2122.3861 v -63.0165 l 82.3754,2.4032 v 47.9724 l 16.9781,-2.4477 v -62.4583 h -106.6298 l -58.1434,23.0082 v 65.4419"
         style="fill:#2b5aa0;fill-opacity:1;fill-rule:nonzero;stroke:none;stroke-width:2.22516"
         id="path32"
         sodipodi:nodetypes="ccccccccc" /><path
         d="m 1890.8602,2017.9153 v -77.2804 l 81.1515,12.1272 v 78.7484 l 16.978,-2.4031 v -93.301 l -105.4281,-20.605 -87.2263,32.7321 v 81.1515"
         style="fill:#2b5aa0;fill-opacity:1;fill-rule:nonzero;stroke:none;stroke-width:2.22516"
         id="path34"
         sodipodi:nodetypes="ccccccccc" /><path
         d="m 3468.232,2253.2256 v -70.2706 l 81.1961,14.5302 v 78.7708 l 16.9557,-2.4255 v -93.301 l -105.4058,-20.5827 -87.2263,32.7321 v 81.1516"
         style="fill:#2b5aa0;fill-opacity:1;fill-rule:nonzero;stroke:none;stroke-width:2.22516"
         id="path36" /><path
         d="m 3428.7355,2584.8634 c 0,0 -34.5568,254.5362 15.7095,323.6719 -461.921,25.1221 -606.4675,15.6875 -606.4675,15.6875 0,0 -47.1512,-128.8147 -3.1597,-241.9418 399.1048,-40.8539 524.7818,-62.8607 559.3609,-88.0051"
         style="fill:#2b5aa0;fill-opacity:1;fill-rule:nonzero;stroke:none;stroke-width:2.22516"
         id="path38" /><path
         d="m 2391.1207,1925.9935 c -316.1731,-158.4093 -654.4642,-187.7369 -927.5582,-105.2502 l -197.7723,-115.2411 33.3774,182.6857 c -133.3761,71.4054 -241.1629,175.8545 -308.62977,310.4989 -215.52907,430.1903 62.08197,1005.5947 620.08557,1285.1416 558.0035,279.5692 1185.0761,157.4747 1400.6051,-272.7157 215.5291,-430.1903 -62.1043,-1005.5279 -620.1078,-1285.1192 z m 747.4982,1291.0381 C 2900.8605,3691.5694 2209.1025,3826.2807 1593.5786,3517.8734 978.03248,3209.4661 671.76134,2574.7835 909.51978,2100.2235 971.24572,1977.0386 1063.7457,1876.9954 1177.3846,1801.4289 l -53.4706,-292.5864 302.2881,176.0992 c 302.1546,-92.9449 677.5614,-61.3032 1028.358,114.4623 615.5461,308.385 921.7951,943.0899 684.0588,1417.6276"
         style="fill:#ffde00;fill-opacity:1;fill-rule:nonzero;stroke:none;stroke-width:2.22516"
         id="path40" /></g></g></svg>
